<?xml version="1.0" standalone="no"?>
<!DOCTYPE svg PUBLIC "-//W3C//DTD SVG 20010904//EN"
 "http://www.w3.org/TR/2001/REC-SVG-20010904/DTD/svg10.dtd">
<svg version="1.0"
    xmlns="http://www.w3.org/2000/svg" width="1214.000000pt" height="1022.000000pt" viewBox="0 0 1214.000000 1022.000000" preserveAspectRatio="xMidYMid meet">
    <metadata>
Created by potrace 1.15, written by Peter Selinger 2001-2017
    </metadata>
    <g transform="translate(0.000000,1022.000000) scale(0.100000,-0.100000)" fill="#000000" stroke="none">
        <path d="M8972 7588 l3 -2513 25 0 25 0 3 2513 2 2512 -30 0 -30 0 2 -2512z"/>
        <path d="M9212 7588 l3 -2513 25 0 25 0 3 2513 2 2512 -30 0 -30 0 2 -2512z"/>
        <path d="M8742 10042 c-10 -7 -12 -511 -10 -2488 l3 -2479 25 0 25 0 3 2479
c2 2486 2 2496 -28 2496 -3 0 -11 -4 -18 -8z"/>
        <path d="M9462 10042 c-10 -7 -12 -511 -10 -2488 l3 -2479 25 0 25 0 3 2479
c2 2486 2 2496 -28 2496 -3 0 -11 -4 -18 -8z"/>
        <path d="M8495 9878 c-3 -7 -4 -1091 -3 -2408 l3 -2395 25 0 25 0 0 2405 0
2405 -23 3 c-12 2 -24 -3 -27 -10z"/>
        <path d="M9695 9878 c-3 -7 -4 -1091 -3 -2408 l3 -2395 25 0 25 0 0 2405 0
2405 -23 3 c-12 2 -24 -3 -27 -10z"/>
        <path d="M8255 9648 c-3 -7 -4 -1039 -3 -2293 l3 -2280 25 0 25 0 0 2290 0
2290 -23 3 c-12 2 -24 -3 -27 -10z"/>
        <path d="M9935 9648 c-3 -7 -4 -1039 -3 -2293 l3 -2280 25 0 25 0 0 2290 0
2290 -23 3 c-12 2 -24 -3 -27 -10z"/>
        <path d="M8022 9352 c-10 -7 -12 -442 -10 -2143 l3 -2134 25 0 25 0 3 2134 c2
2139 2 2151 -28 2151 -3 0 -11 -4 -18 -8z"/>
        <path d="M10182 9352 c-10 -7 -12 -442 -10 -2143 l3 -2134 25 0 25 0 3 2134
c2 2139 2 2151 -28 2151 -3 0 -11 -4 -18 -8z"/>
        <path d="M7782 8982 c-10 -7 -12 -405 -10 -1958 l3 -1949 25 0 25 0 3 1949 c2
1953 2 1966 -28 1966 -3 0 -11 -4 -18 -8z"/>
        <path d="M10422 8982 c-10 -7 -12 -405 -10 -1958 l3 -1949 25 0 25 0 3 1949
c2 1953 2 1966 -28 1966 -3 0 -11 -4 -18 -8z"/>
        <path d="M7542 8552 c-10 -7 -12 -362 -10 -1743 l3 -1734 25 0 25 0 3 1734 c2
1737 2 1751 -28 1751 -3 0 -11 -4 -18 -8z"/>
        <path d="M10662 8552 c-10 -7 -12 -362 -10 -1743 l3 -1734 25 0 25 0 3 1734
c2 1737 2 1751 -28 1751 -3 0 -11 -4 -18 -8z"/>
        <path d="M7295 8058 c-3 -7 -4 -681 -3 -1498 l3 -1485 25 0 25 0 0 1495 0
1495 -23 3 c-12 2 -24 -3 -27 -10z"/>
        <path d="M10895 8058 c-3 -7 -4 -681 -3 -1498 l3 -1485 25 0 25 0 0 1495 0
1495 -23 3 c-12 2 -24 -3 -27 -10z"/>
        <path d="M7055 7528 c-3 -7 -4 -562 -3 -1233 l3 -1220 25 0 25 0 0 1230 0
1230 -23 3 c-12 2 -24 -3 -27 -10z"/>
        <path d="M11135 7528 c-3 -7 -4 -562 -3 -1233 l3 -1220 25 0 25 0 0 1230 0
1230 -23 3 c-12 2 -24 -3 -27 -10z"/>
        <path d="M6822 6972 c-10 -7 -12 -204 -10 -953 l3 -944 25 0 25 0 3 944 c2
942 2 961 -28 961 -3 0 -11 -4 -18 -8z"/>
        <path d="M11382 6972 c-10 -7 -12 -204 -10 -953 l3 -944 25 0 25 0 3 944 c2
942 2 961 -28 961 -3 0 -11 -4 -18 -8z"/>
        <path d="M6575 6368 c-3 -7 -4 -301 -3 -653 l3 -640 25 0 25 0 0 650 0 650
-23 3 c-12 2 -24 -3 -27 -10z"/>
        <path d="M11615 6368 c-3 -7 -4 -301 -3 -653 l3 -640 25 0 25 0 0 650 0 650
-23 3 c-12 2 -24 -3 -27 -10z"/>
        <path d="M6335 5748 c-3 -7 -4 -162 -3 -343 l3 -330 25 0 25 0 0 340 0 340
-23 3 c-12 2 -24 -3 -27 -10z"/>
        <path d="M11855 5748 c-3 -7 -4 -162 -3 -343 l3 -330 25 0 25 0 0 340 0 340
-23 3 c-12 2 -24 -3 -27 -10z"/>
        <path d="M335 5118 c-3 -7 -4 -162 -3 -343 l3 -330 25 0 25 0 0 340 0 340 -23
3 c-12 2 -24 -3 -27 -10z"/>
        <path d="M575 5118 c-3 -7 -4 -301 -3 -653 l3 -640 25 0 25 0 0 650 0 650 -23
3 c-12 2 -24 -3 -27 -10z"/>
        <path d="M817 5124 c-4 -4 -7 -431 -7 -950 0 -828 2 -943 15 -948 8 -3 22 -3
30 0 13 5 15 118 13 953 -3 944 -3 946 -23 949 -12 2 -24 0 -28 -4z"/>
        <path d="M1055 5118 c-3 -7 -4 -562 -3 -1233 l3 -1220 25 0 25 0 0 1230 0
1230 -23 3 c-12 2 -24 -3 -27 -10z"/>
        <path d="M1295 5118 c-3 -7 -4 -681 -3 -1498 l3 -1485 25 0 25 0 0 1495 0
1495 -23 3 c-12 2 -24 -3 -27 -10z"/>
        <path d="M1537 5124 c-4 -4 -7 -787 -7 -1740 0 -1530 2 -1733 15 -1738 8 -3
22 -3 30 0 13 5 15 205 13 1743 l-3 1736 -20 3 c-12 2 -24 0 -28 -4z"/>
        <path d="M1777 5124 c-4 -4 -7 -884 -7 -1955 0 -1721 2 -1948 15 -1953 8 -3
22 -3 30 0 13 6 15 229 13 1958 l-3 1951 -20 3 c-12 2 -24 0 -28 -4z"/>
        <path d="M2017 5124 c-4 -4 -7 -967 -7 -2140 0 -1886 2 -2133 15 -2138 8 -3
22 -3 30 0 13 6 15 250 13 2143 l-3 2136 -20 3 c-12 2 -24 0 -28 -4z"/>
        <path d="M2255 5118 c-3 -7 -4 -1039 -3 -2293 l3 -2280 25 0 25 0 0 2290 0
2290 -23 3 c-12 2 -24 -3 -27 -10z"/>
        <path d="M2495 5118 c-3 -7 -4 -1091 -3 -2408 l3 -2395 25 0 25 0 0 2405 0
2405 -23 3 c-12 2 -24 -3 -27 -10z"/>
        <path d="M2737 5124 c-4 -4 -7 -1122 -7 -2485 0 -2192 2 -2478 15 -2483 8 -3
22 -3 30 0 13 6 15 288 13 2488 l-3 2481 -20 3 c-12 2 -24 0 -28 -4z"/>
        <path d="M2977 5124 c-4 -4 -7 -1136 -7 -2516 l0 -2508 30 0 30 0 -2 2513 -3
2512 -20 3 c-12 2 -24 0 -28 -4z"/>
        <path d="M3217 5124 c-4 -4 -7 -1136 -7 -2516 l0 -2508 30 0 30 0 -2 2513 -3
2512 -20 3 c-12 2 -24 0 -28 -4z"/>
        <path d="M3457 5124 c-4 -4 -7 -1122 -7 -2485 0 -2192 2 -2478 15 -2483 8 -3
22 -3 30 0 13 6 15 288 13 2488 l-3 2481 -20 3 c-12 2 -24 0 -28 -4z"/>
        <path d="M3695 5118 c-3 -7 -4 -1091 -3 -2408 l3 -2395 25 0 25 0 0 2405 0
2405 -23 3 c-12 2 -24 -3 -27 -10z"/>
        <path d="M3935 5118 c-3 -7 -4 -1039 -3 -2293 l3 -2280 25 0 25 0 0 2290 0
2290 -23 3 c-12 2 -24 -3 -27 -10z"/>
        <path d="M4177 5124 c-4 -4 -7 -967 -7 -2140 0 -1886 2 -2133 15 -2138 8 -3
22 -3 30 0 13 6 15 250 13 2143 l-3 2136 -20 3 c-12 2 -24 0 -28 -4z"/>
        <path d="M4417 5124 c-4 -4 -7 -884 -7 -1955 0 -1721 2 -1948 15 -1953 8 -3
22 -3 30 0 13 6 15 229 13 1958 l-3 1951 -20 3 c-12 2 -24 0 -28 -4z"/>
        <path d="M4657 5124 c-4 -4 -7 -787 -7 -1740 0 -1530 2 -1733 15 -1738 8 -3
22 -3 30 0 13 5 15 205 13 1743 l-3 1736 -20 3 c-12 2 -24 0 -28 -4z"/>
        <path d="M4895 5118 c-3 -7 -4 -681 -3 -1498 l3 -1485 25 0 25 0 0 1495 0
1495 -23 3 c-12 2 -24 -3 -27 -10z"/>
        <path d="M5135 5118 c-3 -7 -4 -562 -3 -1233 l3 -1220 25 0 25 0 0 1230 0
1230 -23 3 c-12 2 -24 -3 -27 -10z"/>
        <path d="M5377 5124 c-4 -4 -7 -431 -7 -950 0 -828 2 -943 15 -948 8 -3 22 -3
30 0 13 5 15 118 13 953 -3 944 -3 946 -23 949 -12 2 -24 0 -28 -4z"/>
        <path d="M5615 5118 c-3 -7 -4 -301 -3 -653 l3 -640 25 0 25 0 0 650 0 650
-23 3 c-12 2 -24 -3 -27 -10z"/>
        <path d="M5855 5118 c-3 -7 -4 -162 -3 -343 l3 -330 25 0 25 0 0 340 0 340
-23 3 c-12 2 -24 -3 -27 -10z"/>
    </g>
</svg>
